Coordinates
version=1
nRows=32
nColumns=18
inDegrees=yes

Units are S.I. units (second, meters, Newtons, ...)
Angles are in degrees.

endheader
time	ground_thorax_rot_x	ground_thorax_rot_y	ground_thorax_rot_z	ground_thorax_tx	ground_thorax_ty	ground_thorax_tz	clav_prot	clav_elev	scapula_abduction	scapula_elevation	scapula_upward_rot	scapula_winging	plane_elv	shoulder_elv	axial_rot	elbow_flexion	pro_sup
      4.24000000	      0.22595631	     -7.30910125	    -10.13623174	     -0.00423131	      0.00403036	     -0.00078352	    -41.23644308	      9.97547869	      1.00584703	     -1.42480587	     77.71233938	    -11.08898844	     42.45998383	     83.64719546	     -8.06501476	      0.00000000	     34.32000000
      4.25000000	      0.34004746	     -7.43355294	    -10.20486366	     -0.00423131	      0.00403036	     -0.00078352	    -41.15206168	      9.89457983	      1.10407379	     -1.47992675	     77.62727614	    -11.03392389	     42.73759259	     83.45327798	     -8.11593525	      0.00000000	     34.32000000
      4.26000000	      0.16500942	     -7.57899227	    -10.21315001	     -0.00423131	      0.00403036	     -0.00078352	    -41.04146638	      9.79509073	      1.04579519	     -1.56833356	     77.28503925	    -10.99370750	     43.07129963	     83.11296101	     -8.19079029	      0.00000000	     34.32000000
      4.27000000	      0.13003482	     -7.64770774	    -10.22226593	     -0.00423131	      0.00403036	     -0.00078352	    -41.05803689	      9.86143603	      0.86094297	     -1.53984499	     77.11251148	    -11.04068111	     43.47264018	     82.76641034	     -8.06148899	      0.00000000	     34.32000000
      4.28000000	      0.08804325	     -7.71356297	    -10.32016245	     -0.00423131	      0.00403036	     -0.00078352	    -40.95725672	      9.79911150	      0.88560394	     -1.59122953	     76.90712245	    -10.99596771	     43.72406390	     82.71342276	     -7.91076482	      0.00000000	     34.32000000
      4.29000000	      0.24495909	     -7.76610484	    -10.17586551	     -0.00423131	      0.00403036	     -0.00078352	    -40.82949244	     10.06316822	      0.97577970	     -1.40774012	     76.83393487	    -10.99424773	     43.92583744	     82.57387391	     -8.24546564	      0.00000000	     34.32000000
      4.30000000	      0.35273041	     -7.70753738	    -10.23759575	     -0.00423131	      0.00403036	     -0.00078352	    -40.79079865	     10.03456245	      1.02633244	     -1.42632449	     76.80441870	    -10.96938859	     43.99294764	     82.49344422	     -8.25677742	      0.00000000	     34.32000000
      4.31000000	      0.23693891	     -7.99939909	    -10.16562094	     -0.00423131	      0.00403036	     -0.00078352	    -40.37966356	      9.85326811	      1.63093642	     -1.53028356	     76.61500098	    -10.72549788	     44.07873664	     82.20767540	     -8.31007752	      0.00000000	     34.32000000
      4.32000000	      0.09476621	     -8.00045214	    -10.31483691	     -0.00423131	      0.00403036	     -0.00078352	    -40.18335294	      9.51537689	      1.85267259	     -1.76435424	     76.35959760	    -10.57308292	     44.14657745	     82.07024078	     -8.52800067	      0.00000000	     34.32000000
      4.33000000	      0.09166029	     -8.28745976	    -10.28138114	     -0.00423131	      0.00403036	     -0.00078352	    -39.77341920	      9.45095277	      2.48456895	     -1.78298200	     76.24338168	    -10.35395801	     44.10686954	     81.79212034	     -8.47231966	      0.00000000	     34.32000000
      4.34000000	     -0.01756515	     -8.36309449	    -10.39462144	     -0.00423131	      0.00403036	     -0.00078352	    -39.63447720	      9.30064122	      2.56203862	     -1.89376233	     75.99403108	    -10.27601581	     44.33611401	     81.62357530	     -8.34564300	      0.00000000	     34.32000000
      4.35000000	     -0.23736167	     -8.05932048	    -10.62221813	     -0.00423131	      0.00403036	     -0.00078352	    -39.94140656	      9.05899733	      1.79214711	     -2.11344640	     75.62111040	    -10.42311390	     45.05356712	     81.50541879	     -8.12456744	      0.00000000	     34.32000000
      4.36000000	     -0.21735433	     -8.15580445	    -10.76996746	     -0.00423131	      0.00403036	     -0.00078352	    -39.90117418	      9.12289173	      1.81621529	     -2.06936182	     75.58575773	    -10.42129026	     45.15011586	     81.40715753	     -8.14339990	      0.00000000	     34.32000000
      4.37000000	     -0.20526500	     -8.19289208	    -10.56700117	     -0.00423131	      0.00403036	     -0.00078352	    -39.81824186	      9.34602002	      1.65797730	     -1.93381644	     75.28616734	    -10.46569006	     45.79010585	     81.28968978	     -8.03595149	      0.00000000	     34.32000000
      4.38000000	     -0.12596075	     -8.10773441	    -10.66830977	     -0.00423131	      0.00403036	     -0.00078352	    -39.76557369	      9.37578004	      1.71109735	     -1.91204819	     75.24968468	    -10.44900877	     45.85465327	     81.18250162	     -8.05356796	      0.00000000	     34.32000000
      4.39000000	      0.00580835	     -8.41462567	    -10.39689340	     -0.00423131	      0.00403036	     -0.00078352	    -39.43686217	      9.68073020	      2.15297623	     -1.68158671	     75.19349317	    -10.35438366	     46.19172322	     80.71798802	     -8.20182545	      0.00000000	     34.32000000
      4.40000000	      0.00004224	     -8.56368937	    -10.41961297	     -0.00423131	      0.00403036	     -0.00078352	    -39.22442629	      9.67295949	      2.34740904	     -1.68525335	     74.97795877	    -10.26731967	     46.45419909	     80.49565907	     -8.23154731	      0.00000000	     34.32000000
      4.41000000	     -0.08331300	     -8.57233089	    -10.51150725	     -0.00423131	      0.00403036	     -0.00078352	    -39.13232015	      9.55494278	      2.30483070	     -1.77888059	     74.69205214	    -10.22510707	     46.76877035	     80.37015132	     -8.27595205	      0.00000000	     34.32000000
      4.42000000	     -0.03440575	     -8.76925505	    -10.46519450	     -0.00423131	      0.00403036	     -0.00078352	    -38.89727601	      9.60997684	      2.65309388	     -1.72578331	     74.63685712	    -10.12450931	     46.82042739	     80.13909208	     -8.38477634	      0.00000000	     34.32000000
      4.43000000	     -0.08544642	     -8.82510749	    -10.51536507	     -0.00423131	      0.00403036	     -0.00078352	    -38.79679069	      9.45931193	      2.73175277	     -1.83182524	     74.47102381	    -10.05784173	     47.00752024	     79.99817593	     -8.63744806	      0.00000000	     34.32000000
      4.44000000	     -0.11234764	     -8.99890368	    -10.53229626	     -0.00423131	      0.00403036	     -0.00078352	    -38.63408525	      9.38276278	      2.92554726	     -1.87983986	     74.33774076	     -9.97363334	     47.19837727	     79.72013078	     -8.86850999	      0.00000000	     34.32000000
      4.45000000	     -0.15637693	     -9.03565047	    -10.58641425	     -0.00423131	      0.00403036	     -0.00078352	    -38.56378299	      9.31333140	      2.86900448	     -1.93816097	     74.09748747	     -9.94820947	     47.58060041	     79.47230264	     -8.90049173	      0.00000000	     34.32000000
      4.46000000	     -0.21700433	     -8.99334522	    -10.63879875	     -0.00423131	      0.00403036	     -0.00078352	    -38.51573447	      9.22414243	      2.74507971	     -2.01420459	     73.81571293	     -9.93273732	     48.02419453	     79.27988142	     -8.84509634	      0.00000000	     34.32000000
      4.47000000	     -0.12252688	     -9.06259412	    -10.64951298	     -0.00423131	      0.00403036	     -0.00078352	    -38.40278162	      9.23850535	      2.89352673	     -1.99875427	     73.76241679	     -9.88643594	     48.31357043	     79.13300664	     -8.96212338	      0.00000000	     34.32000000
      4.48000000	     -0.13290916	     -9.16773271	    -10.60143027	     -0.00423131	      0.00403036	     -0.00078352	    -38.23388575	      9.23868531	      3.07069155	     -1.99416734	     73.62052089	     -9.81885808	     48.50814386	     78.96218676	     -9.04305118	      0.00000000	     34.32000000
      4.49000000	     -0.17044759	     -9.20914554	    -10.59926966	     -0.00423131	      0.00403036	     -0.00078352	    -38.17756088	      9.14940331	      3.05283602	     -2.06154926	     73.45101254	     -9.78754116	     48.80559706	     78.72721982	     -9.20964948	      0.00000000	     34.32000000
      4.50000000	     -0.12051803	     -9.26179342	    -10.57935516	     -0.00423131	      0.00403036	     -0.00078352	    -38.08626976	      9.15859318	      3.05261667	     -2.06025358	     73.26063994	     -9.76481712	     48.99592728	     78.56720042	     -9.73645612	      0.00000000	     34.32000000
      4.51000000	     -0.15108647	     -9.21454864	    -10.64862834	     -0.00423131	      0.00403036	     -0.00078352	    -38.12329143	      8.99235976	      2.99016316	     -2.17990876	     73.20966002	     -9.74802656	     49.15627988	     78.19853830	     -9.92955181	      0.00000000	     34.32000000
      4.52000000	     -0.04397568	     -9.20528154	    -10.73201639	     -0.00423131	      0.00403036	     -0.00078352	    -38.08630262	      8.99240834	      3.01196560	     -2.18003515	     73.15809592	     -9.73544523	     49.20867079	     78.09600410	     -9.94759734	      0.00000000	     34.32000000
      4.53000000	     -0.18383519	     -9.16447739	    -10.65628407	     -0.00423131	      0.00403036	     -0.00078352	    -38.03892762	      8.96297433	      2.85274511	     -2.21536046	     72.85501327	     -9.73448282	     49.66601863	     77.83068869	     -9.98124010	      0.00000000	     34.32000000
      4.54000000	     -0.18687235	     -9.09895841	    -10.66346498	     -0.00423131	      0.00403036	     -0.00078352	    -38.00855338	      8.97805457	      2.74286184	     -2.21449617	     72.66223382	     -9.74144680	     49.99805673	     77.61928327	    -10.01147489	      0.00000000	     34.32000000
      4.55000000	     -0.14830054	     -9.12738181	    -10.62808977	     -0.00423131	      0.00403036	     -0.00078352	    -37.92106256	      9.06096902	      2.72708663	     -2.16156198	     72.48531768	     -9.73580344	     50.28390445	     77.33960119	    -10.07453099	      0.00000000	     34.32000000
